<svg width="800" height="800" viewBox="0 0 24 24" fill="none" xmlns="http://www.w3.org/2000/svg"><path opacity=".5" d="M13.633 5.358a6.984 6.984 0 00-9.874 0 6.984 6.984 0 000 9.875 6.984 6.984 0 009.874 0 6.973 6.973 0 000-9.875z" fill="url(#prefix__paint0_radial)"/><path d="M8.696 15.278a4.983 4.983 0 100-9.965 4.983 4.983 0 000 9.965z" fill="url(#prefix__paint1_radial)"/><path d="M8.696 15.278a4.983 4.983 0 100-9.965 4.983 4.983 0 000 9.965z" fill="url(#prefix__paint2_radial)"/><path d="M9.536 16.815a3.731 3.731 0 100-7.462 3.731 3.731 0 000 7.462z" fill="url(#prefix__paint3_radial)"/><path d="M14.473 16.095a4.131 4.131 0 100-8.262 4.131 4.131 0 000 8.262z" fill="url(#prefix__paint4_radial)"/><path d="M12.713 19.552a3.457 3.457 0 100-6.914 3.457 3.457 0 000 6.914z" fill="url(#prefix__paint5_radial)"/><path d="M6.027 20.644H17.65v-5.023H6.69l-.663 5.023z" fill="url(#prefix__paint6_linear)"/><path d="M17.65 20.644a4.634 4.634 0 100-9.269 4.634 4.634 0 000 9.27z" fill="url(#prefix__paint7_radial)"/><path d="M18.941 20.46a4.636 4.636 0 01-2.582-8.902 4.636 4.636 0 012.582 8.903z" fill="url(#prefix__paint8_radial)"/><path d="M10.21 9.41a3.732 3.732 0 00-3.703 5.851l1.412-1.023c-.829-1.886-.395-4.337 2.291-4.828z" fill="url(#prefix__paint9_radial)"/><path d="M6.027 20.644a3.731 3.731 0 100-7.463 3.731 3.731 0 000 7.463z" fill="url(#prefix__paint10_radial)"/><defs><radialGradient id="prefix__paint0_radial" cx="0" cy="0" r="1" gradientUnits="userSpaceOnUse" gradientTransform="translate(8.697 10.296) scale(6.9839)"><stop offset=".682" stop-color="#FCCE38" stop-opacity="0"/><stop offset="1" stop-color="#FCCE38"/></radialGradient><radialGradient id="prefix__paint1_radial" cx="0" cy="0" r="1" gradientUnits="userSpaceOnUse" gradientTransform="translate(7.37 8.291) scale(6.82362)"><stop stop-color="#FBE07A"/><stop offset="1" stop-color="#d6ad60"/></radialGradient><radialGradient id="prefix__paint2_radial" cx="0" cy="0" r="1" gradientUnits="userSpaceOnUse" gradientTransform="matrix(1.07658 1.89202 -3.55778 2.02443 7.28 7.92)"><stop stop-color="#fff" stop-opacity=".5"/><stop offset="1" stop-color="#fff" stop-opacity="0"/></radialGradient><radialGradient id="prefix__paint3_radial" cx="0" cy="0" r="1" gradientUnits="userSpaceOnUse" gradientTransform="translate(10.13 14.381) scale(8.6494)"><stop stop-color="#fff"/><stop offset=".345" stop-color="#FCFDFD"/><stop offset=".596" stop-color="#F3F6F7"/><stop offset=".815" stop-color="#E3EBEC"/><stop offset="1" stop-color="#CFDCDE"/></radialGradient><radialGradient id="prefix__paint4_radial" cx="0" cy="0" r="1" gradientUnits="userSpaceOnUse" gradientTransform="translate(11.971 13.264) scale(6.94231)"><stop stop-color="#fff"/><stop offset=".345" stop-color="#FCFDFD"/><stop offset=".596" stop-color="#F3F6F7"/><stop offset=".815" stop-color="#E3EBEC"/><stop offset="1" stop-color="#CFDCDE"/></radialGradient><radialGradient id="prefix__paint5_radial" cx="0" cy="0" r="1" gradientUnits="userSpaceOnUse" gradientTransform="translate(12.178 16.368) scale(4.65688)"><stop stop-color="#fff"/><stop offset=".345" stop-color="#FCFDFD"/><stop offset=".596" stop-color="#F3F6F7"/><stop offset=".815" stop-color="#E3EBEC"/><stop offset="1" stop-color="#CFDCDE"/></radialGradient><radialGradient id="prefix__paint7_radial" cx="0" cy="0" r="1" gradientUnits="userSpaceOnUse" gradientTransform="translate(16.193 12.022) scale(9.16822)"><stop stop-color="#fff"/><stop offset=".345" stop-color="#FCFDFD"/><stop offset=".595" stop-color="#F3F6F7"/><stop offset=".814" stop-color="#E3EBEC"/><stop offset=".999" stop-color="#CFDCDE"/></radialGradient><radialGradient id="prefix__paint8_radial" cx="0" cy="0" r="1" gradientUnits="userSpaceOnUse" gradientTransform="matrix(2.38318 8.20947 -8.20869 2.38295 14.077 12.86)"><stop stop-color="#fff"/><stop offset=".345" stop-color="#FCFDFD"/><stop offset=".596" stop-color="#F3F6F7"/><stop offset=".815" stop-color="#E3EBEC"/><stop offset="1" stop-color="#CFDCDE"/></radialGradient><radialGradient id="prefix__paint9_radial" cx="0" cy="0" r="1" gradientUnits="userSpaceOnUse" gradientTransform="rotate(119.175 1.25 7.032) scale(9.26054)"><stop stop-color="#CFDCDE" stop-opacity="0"/><stop offset=".887" stop-color="#CFDCDE" stop-opacity=".887"/><stop offset="1" stop-color="#CFDCDE"/></radialGradient><radialGradient id="prefix__paint10_radial" cx="0" cy="0" r="1" gradientUnits="userSpaceOnUse" gradientTransform="translate(8.495 13.657) scale(7.20081)"><stop stop-color="#fff"/><stop offset=".345" stop-color="#FCFDFD"/><stop offset=".596" stop-color="#F3F6F7"/><stop offset=".815" stop-color="#E3EBEC"/><stop offset="1" stop-color="#CFDCDE"/></radialGradient><linearGradient id="prefix__paint6_linear" x1="11.838" y1="14.008" x2="11.838" y2="20.843" gradientUnits="userSpaceOnUse"><stop stop-color="#fff"/><stop offset=".345" stop-color="#FCFDFD"/><stop offset=".596" stop-color="#F3F6F7"/><stop offset=".815" stop-color="#E3EBEC"/><stop offset="1" stop-color="#CFDCDE"/></linearGradient></defs></svg>